<svg width="181" height="140" viewBox="0 0 181 140" fill="none" xmlns="http://www.w3.org/2000/svg">
<path d="M117.627 65.5783C116.719 62.3216 116.258 58.5823 116.258 54.3492C116.258 42.731 120.644 31.2583 129.523 19.9148C138.824 8.55337 149.725 0.254358 162.227 -5.00686L163.209 -5.42037L162.734 -6.37452L157.218 -17.4459L156.784 -18.3159L155.902 -17.9074C134.518 -8.00268 118.422 5.23204 107.677 21.8214L107.672 21.8289L107.667 21.8364C97.3473 38.407 92.1936 57.0446 92.1936 77.7222C92.1936 93.8595 95.6991 107.585 102.765 118.848C111.126 132.272 123.507 139 139.774 139C151.055 139 160.509 135.216 168.063 127.634C176.015 119.655 180 109.969 180 98.6349C180 86.5138 176.035 76.802 168.044 69.6158C160.492 62.0477 151.045 58.2698 139.774 58.2698C131.471 58.2698 124.077 60.7075 117.627 65.5783ZM13.4338 65.5783C12.5259 62.3216 12.0645 58.5823 12.0645 54.3492C12.0645 42.731 16.4501 31.2583 25.3291 19.9147C34.6306 8.55333 45.5315 0.254345 58.0331 -5.00686L59.0156 -5.42037L58.5402 -6.37452L53.0241 -17.4459L52.5907 -18.3159L51.7088 -17.9074C30.3245 -8.00268 14.2282 5.23204 3.48326 21.8214L3.47843 21.8289L3.47374 21.8364C-6.84622 38.407 -12 57.0446 -12 77.7222C-12 93.8592 -8.49454 107.584 -1.42897 118.847C6.9324 132.272 19.3131 139 35.5807 139C46.8614 139 56.3153 135.216 63.8697 127.634C71.8213 119.655 75.8064 109.969 75.8064 98.6349C75.8064 86.5138 71.8415 76.802 63.8501 69.6158C56.2989 62.0477 46.8516 58.2698 35.5807 58.2698C27.2774 58.2698 19.8837 60.7075 13.4338 65.5783Z" stroke="#72BF24" stroke-width="2"/>
</svg>
