<?xml version="1.0" encoding="UTF-8"?>
<svg xmlns="http://www.w3.org/2000/svg" xmlns:xlink="http://www.w3.org/1999/xlink" viewBox="0 0 2738.1 1648.54">
  <defs>
    <style>
      .cls-1 {
        fill: url(#linear-gradient-2);
      }

      .cls-2 {
        font-size: 7px;
      }

      .cls-2, .cls-3, .cls-4, .cls-5 {
        fill: #1e1e39;
      }

      .cls-2, .cls-4 {
        font-family: Montserrat-SemiBold, Montserrat;
        font-weight: 600;
      }

      .cls-6 {
        letter-spacing: -.01em;
      }

      .cls-7 {
        letter-spacing: 0em;
      }

      .cls-3 {
        font-family: Candara, Candara;
        font-size: 20px;
        letter-spacing: 0em;
      }

      .cls-4 {
        font-size: 6px;
        letter-spacing: .2em;
      }

      .cls-8 {
        fill: url(#linear-gradient-3);
      }

      .cls-9 {
        fill: url(#linear-gradient);
      }

      .cls-10 {
        fill: url(#linear-gradient-4);
      }
    </style>
    <linearGradient id="linear-gradient" x1="1226.36" y1="575.74" x2="1318.13" y2="575.74" gradientUnits="userSpaceOnUse">
      <stop offset="0" stop-color="#fdeeca"/>
      <stop offset=".02" stop-color="#f2deb3"/>
      <stop offset=".07" stop-color="#d7b779"/>
      <stop offset=".08" stop-color="#d0ad6a"/>
      <stop offset=".09" stop-color="#caa665"/>
      <stop offset=".13" stop-color="#a67f48"/>
      <stop offset=".18" stop-color="#896032"/>
      <stop offset=".23" stop-color="#754a22"/>
      <stop offset=".27" stop-color="#693d18"/>
      <stop offset=".31" stop-color="#653915"/>
      <stop offset=".35" stop-color="#6a3e19"/>
      <stop offset=".4" stop-color="#794e24"/>
      <stop offset=".46" stop-color="#916938"/>
      <stop offset=".53" stop-color="#b38d53"/>
      <stop offset=".57" stop-color="#d0ad6a"/>
      <stop offset=".67" stop-color="#ecd6a7"/>
      <stop offset=".73" stop-color="#fdeeca"/>
      <stop offset=".76" stop-color="#f2deb3"/>
      <stop offset=".82" stop-color="#d7b779"/>
      <stop offset=".84" stop-color="#d0ad6a"/>
      <stop offset=".95" stop-color="#845b2e"/>
      <stop offset="1" stop-color="#653915"/>
    </linearGradient>
    <linearGradient id="linear-gradient-2" x1="1226.36" y1="576.86" x2="1269.1" y2="576.86" xlink:href="#linear-gradient"/>
    <linearGradient id="linear-gradient-3" x1="1216.9" y1="639.5" x2="1278.16" y2="576.41" gradientUnits="userSpaceOnUse">
      <stop offset="0" stop-color="#fdeeca"/>
      <stop offset=".02" stop-color="#f2deb3"/>
      <stop offset=".07" stop-color="#d7b779"/>
      <stop offset=".08" stop-color="#d0ad6a"/>
      <stop offset=".09" stop-color="#caa665"/>
      <stop offset=".18" stop-color="#a67f48"/>
      <stop offset=".26" stop-color="#896032"/>
      <stop offset=".35" stop-color="#754a22"/>
      <stop offset=".43" stop-color="#693d18"/>
      <stop offset=".5" stop-color="#653915"/>
      <stop offset=".56" stop-color="#6a3e19"/>
      <stop offset=".65" stop-color="#794e24"/>
      <stop offset=".74" stop-color="#916938"/>
      <stop offset=".84" stop-color="#b38d53"/>
      <stop offset=".92" stop-color="#d0ad6a"/>
      <stop offset=".97" stop-color="#ecd6a7"/>
      <stop offset="1" stop-color="#fdeeca"/>
    </linearGradient>
    <linearGradient id="linear-gradient-4" x1="1193.56" y1="589.87" x2="1321.76" y2="589.87" xlink:href="#linear-gradient-3"/>
  </defs>
  <g id="Layer_8" data-name="Layer 8">
    <g>
      <path class="cls-9" d="m1272.42,528.62c10.21,0,20.11,1.71,29.7,5.15v18.34c-2.55-3.96-5.41-7.59-8.58-10.89-3.17-3.3-6.73-5.91-10.69-7.85-3.96-1.94-8.32-2.9-13.07-2.9-5.11,0-9.57,1.84-13.4,5.54-.82.79-1.55,1.61-2.19,2.47-2.37,3.12-3.55,6.66-3.55,10.6,0,3.46.79,6.58,2.37,9.37,1.59,2.83,3.99,5.31,7.2,7.46,6.38,4.27,16.08,6.4,29.1,6.4h27.2c-5.02,1.58-8.06,4.22-9.11,7.92l-.13,41.32h-1.32l-9.11-18.75c-1.32,5.9-3.98,10.72-7.99,14.46-4,3.74-9.88,5.61-17.62,5.61-7.04,0-13.3-1.02-18.78-3.05-1.94-.72-3.78-1.57-5.53-2.55-3.18-1.78-6.03-3.98-8.56-6.61-7.51-7.81-11.42-18.84-11.73-33.09,3.22-3.05,6.87-5.67,10.94-7.87,0,10.11,1.28,19.08,3.83,26.9,2.36,7.24,5.79,13.03,10.29,17.36.37.37.75.71,1.13,1.05,1.18,1.04,2.42,1.95,3.72,2.74,4.3,2.62,9.28,3.93,14.95,3.93,6.08,0,11-1.41,14.79-4.23,3.78-2.81,6.49-6.55,8.12-11.22,1.62-4.66,2.44-9.81,2.44-15.44v-17.16c-9.33,0-16.85-.4-22.57-1.19-5.72-.79-10.78-2.68-15.18-5.67-3.03-2.16-5.35-4.6-6.96-7.3-1.88-3.11-2.81-6.57-2.81-10.39,0-4.46,1.32-8.35,3.98-11.68,1.53-1.93,3.5-3.67,5.92-5.22-2.69.93-5.16,2.2-7.39,3.82-2.21,1.58-4.21,3.49-5.98,5.74-.86,1.07-1.66,2.22-2.41,3.44-3.09,5.05-4.97,11.22-5.6,18.49-1.69,1.76-3.49,3.51-5.42,5.27-1.98,1.81-3.92,3.71-5.8,5.71.21-13.66,4.34-24.67,12.4-33.03,1.53-1.59,3.16-3.03,4.89-4.33,1.6-1.2,3.28-2.27,5.04-3.22,6.64-3.58,14.46-5.39,23.47-5.45m0-.25h0c-9.02.06-16.95,1.9-23.59,5.48-1.78.96-3.48,2.05-5.07,3.24-1.74,1.31-3.4,2.78-4.92,4.36-8.06,8.36-12.26,19.53-12.47,33.2v.65s.43-.47.43-.47c1.8-1.92,3.75-3.84,5.79-5.7,1.92-1.75,3.75-3.53,5.43-5.28l.06-.06v-.09c.63-7.18,2.5-13.36,5.57-18.38.76-1.24,1.57-2.39,2.39-3.41,1.73-2.2,3.73-4.12,5.93-5.69,1.65-1.2,3.45-2.21,5.38-3.04-1.67,1.25-3.09,2.62-4.25,4.08-2.68,3.35-4.03,7.33-4.03,11.84,0,3.86.96,7.4,2.85,10.52,1.63,2.73,3.99,5.21,7.03,7.37,4.42,3,9.56,4.92,15.29,5.71,5.68.78,13.2,1.19,22.35,1.19v16.91c0,5.56-.82,10.73-2.43,15.36-1.6,4.6-4.31,8.33-8.03,11.1-3.73,2.77-8.65,4.18-14.64,4.18-5.59,0-10.58-1.31-14.82-3.89-1.29-.79-2.53-1.7-3.68-2.71-.37-.33-.75-.67-1.12-1.04-4.45-4.28-7.89-10.09-10.23-17.26-2.53-7.77-3.82-16.79-3.82-26.82v-.42l-.37.2c-4.09,2.21-7.78,4.87-10.99,7.91l-.08.08v.11c.31,14.25,4.28,25.44,11.8,33.26,2.53,2.63,5.43,4.87,8.62,6.65,1.76.99,3.63,1.85,5.57,2.57,5.49,2.03,11.84,3.07,18.87,3.07,7.78,0,13.76-1.91,17.79-5.68,3.87-3.61,6.52-8.28,7.9-13.9l8.8,18.12.07.14h1.73v-.25s.13-41.29.13-41.29c1.03-3.58,4.04-6.17,8.94-7.72l1.55-.49h-28.83c-12.91,0-22.66-2.14-28.96-6.36-3.17-2.12-5.56-4.6-7.12-7.37-1.55-2.74-2.34-5.85-2.34-9.25,0-3.88,1.18-7.39,3.5-10.45.62-.84,1.35-1.66,2.16-2.44,3.76-3.63,8.21-5.47,13.23-5.47,4.71,0,9.07.97,12.96,2.87,3.92,1.92,7.49,4.54,10.62,7.8,3.14,3.27,6.02,6.92,8.55,10.85l.46.71v-19.37l-.17-.06c-9.55-3.43-19.57-5.16-29.78-5.16h0Z"/>
      <path class="cls-1" d="m1251.83,536c.54.43,1.03.9,1.47,1.4-2.66,3.33-3.98,7.22-3.98,11.68,0,3.82.93,7.28,2.81,10.39-1.02,1.11-2.16,2.16-3.41,3.14-2.42,1.89-5.08,3.67-7.99,5.34,4.66.36,9.11,1.63,13.33,3.83,4.23,2.2,7.75,5.3,10.56,9.31,2.82,4,4.23,8.86,4.23,14.58,0,7.13-2.53,13.23-7.59,18.29-1.48,1.48-3.05,2.75-4.72,3.79-1.3-.79-2.54-1.7-3.72-2.74-.38-.34-.76-.68-1.13-1.05,1.8-1.83,3.21-4.08,4.22-6.74,1.32-3.47,1.98-7.32,1.98-11.55,0-8.09-1.83-14.54-5.48-19.33-3.65-4.8-8.25-7.2-13.79-7.2-.35.18-.7.37-1.05.56-4.07,2.2-7.72,4.82-10.94,7.87-.01-.6-.02-1.21-.02-1.83,0-.37,0-.73.01-1.09,1.88-2,3.82-3.9,5.8-5.71,1.93-1.76,3.73-3.51,5.42-5.27.47-.49.92-.97,1.37-1.46,2.07-2.24,3.77-4.66,5.09-7.26,1.32-2.59,1.98-5.56,1.98-8.91,0-1.58-.15-3.01-.43-4.3,1.77-2.25,3.77-4.16,5.98-5.74m0-.31l-.15.11c-2.24,1.6-4.27,3.55-6.03,5.79l-.07.09.02.12c.28,1.3.42,2.73.42,4.25,0,3.29-.66,6.25-1.95,8.8-1.3,2.56-3,4.98-5.05,7.2-.45.49-.9.97-1.37,1.46-1.67,1.74-3.49,3.51-5.41,5.26-2.04,1.87-4,3.79-5.81,5.72l-.07.07v.1c-.01.36-.01.72-.01,1.1,0,.62.01,1.23.02,1.83v.57s.42-.39.42-.39c3.18-3.01,6.84-5.64,10.89-7.83.33-.18.66-.36.99-.53,5.41.02,9.96,2.41,13.53,7.1,3.6,4.73,5.43,11.18,5.43,19.18,0,4.18-.66,8.04-1.96,11.46-.99,2.61-2.39,4.85-4.16,6.65l-.17.18.18.18c.37.37.76.72,1.14,1.06,1.18,1.04,2.44,1.97,3.76,2.77l.13.08.13-.08c1.65-1.03,3.25-2.32,4.76-3.83,5.08-5.08,7.66-11.3,7.66-18.47,0-5.75-1.44-10.7-4.28-14.72-2.82-4.02-6.4-7.18-10.65-9.39-3.98-2.07-8.23-3.35-12.64-3.79,2.64-1.55,5.1-3.22,7.34-4.96,1.26-.98,2.41-2.05,3.44-3.17l.13-.14-.1-.16c-1.84-3.04-2.77-6.5-2.77-10.26,0-4.39,1.32-8.26,3.93-11.52l.13-.16-.14-.16c-.46-.52-.96-1-1.5-1.43l-.15-.12h0Z"/>
    </g>
  </g>
  <g id="Layer_9" data-name="Layer 9">
    <text class="cls-2" transform="translate(1232.28 656.42)"><tspan class="cls-7" x="0" y="0">B</tspan><tspan class="cls-6" x="5.32" y="0">A</tspan><tspan class="cls-7" x="10.49" y="0">CK OFFICE</tspan></text>
    <text class="cls-4" transform="translate(1303.52 537.4)"><tspan x="0" y="0">®</tspan></text>
    <path class="cls-5" d="m1251.69,613.96c-.56.57-1.15,1.09-1.78,1.58-.9.7-1.9,1.28-2.99,1.73-2.15.92-4.65,1.37-7.51,1.37-3.34,0-6.62-.97-9.83-2.9-3.22-1.94-5.86-4.64-7.92-8.12-2.07-3.48-3.1-7.46-3.1-11.95,0-5.54,1.58-10.42,4.75-14.65,1.05-1.21,2.16-2.36,3.32-3.45-.01-.6-.02-1.21-.02-1.83,0-.37,0-.73.01-1.09-.48.49-.94.99-1.4,1.49-2.33,2.55-4.25,5.39-5.74,8.51-1.5,3.13-2.24,6.76-2.24,10.89v-64.41h8.84c3.78,0,7.19.41,10.23,1.25,3.04.84,5.46,2.33,7.26,4.49.12.14.23.28.34.42.9,1.22,1.55,2.71,1.94,4.45,1.77-2.25,3.77-4.16,5.98-5.74-.84-.71-1.79-1.34-2.85-1.91-.01-.01-.02-.01-.03-.02-5.32-2.84-12.95-4.27-22.87-4.27h-28.51c2.02.53,3.91,1.48,5.67,2.84,1.76,1.37,2.91,3.02,3.44,4.95v76.04c-.53,1.93-1.68,3.58-3.44,4.94-1.76,1.37-3.65,2.36-5.67,2.98h19.67v-25.88c0,7.13,2.52,13.23,7.59,18.29,5.06,5.06,11.1,7.59,18.15,7.59,3.39,0,6.55-.57,9.47-1.73,1.42-.55,2.79-1.24,4.09-2.07-1.3-.79-2.54-1.7-3.72-2.74-.38-.34-.76-.68-1.13-1.05Zm.44-54.49c.31-.33.6-.67.88-1.02.6-.72,1.15-1.47,1.65-2.24,1.54-2.38,2.31-5.2,2.31-8.45,0-3.68-.92-6.78-2.78-9.28-.27-.37-.56-.73-.89-1.08-2.66,3.33-3.98,7.22-3.98,11.68,0,3.82.93,7.28,2.81,10.39Z"/>
    <g>
      <path class="cls-8" d="m1289.31,572.31c-13.02,0-22.72-2.13-29.1-6.4-3.21-2.15-5.61-4.63-7.2-7.46-1.58-2.79-2.37-5.91-2.37-9.37,0-3.94,1.18-7.48,3.55-10.6.64-.86,1.37-1.68,2.19-2.47,3.83-3.7,8.29-5.54,13.4-5.54,4.75,0,9.11.96,13.07,2.9,3.96,1.94,7.52,4.55,10.69,7.85,3.17,3.3,6.03,6.93,8.58,10.89v-18.34c-9.59-3.44-19.49-5.15-29.7-5.15-9.01.06-16.83,1.87-23.47,5.45-1.76.95-3.44,2.02-5.04,3.22-1.73,1.3-3.36,2.74-4.89,4.33-8.06,8.36-12.19,19.37-12.4,33.03,1.88-2,3.82-3.9,5.8-5.71,1.93-1.76,3.73-3.51,5.42-5.27.63-7.27,2.51-13.44,5.6-18.49.75-1.22,1.55-2.37,2.41-3.44,1.77-2.25,3.77-4.16,5.98-5.74,2.23-1.62,4.7-2.89,7.39-3.82-2.42,1.55-4.39,3.29-5.92,5.22-2.66,3.33-3.98,7.22-3.98,11.68,0,3.82.93,7.28,2.81,10.39,1.61,2.7,3.93,5.14,6.96,7.3,4.4,2.99,9.46,4.88,15.18,5.67,5.72.79,13.24,1.19,22.57,1.19v17.16c0,5.63-.82,10.78-2.44,15.44-1.63,4.67-4.34,8.41-8.12,11.22-3.79,2.82-8.71,4.23-14.79,4.23-5.67,0-10.65-1.31-14.95-3.93-1.3-.79-2.54-1.7-3.72-2.74-.38-.34-.76-.68-1.13-1.05-4.5-4.33-7.93-10.12-10.29-17.36-2.55-7.82-3.83-16.79-3.83-26.9-4.07,2.2-7.72,4.82-10.94,7.87.31,14.25,4.22,25.28,11.73,33.09,2.53,2.63,5.38,4.83,8.56,6.61,1.75.98,3.59,1.83,5.53,2.55,5.48,2.03,11.74,3.05,18.78,3.05,7.74,0,13.62-1.87,17.62-5.61,4.01-3.74,6.67-8.56,7.99-14.46l9.11,18.75h1.32l.13-41.32c1.05-3.7,4.09-6.34,9.11-7.92h-27.2Z"/>
      <path class="cls-5" d="m1268.85,595.67c0,7.13-2.53,13.23-7.59,18.29-1.48,1.48-3.05,2.75-4.72,3.79-1.3-.79-2.54-1.7-3.72-2.74-.38-.34-.76-.68-1.13-1.05,1.8-1.83,3.21-4.08,4.22-6.74,1.32-3.47,1.98-7.32,1.98-11.55,0-8.09-1.83-14.54-5.48-19.33-3.65-4.8-8.25-7.2-13.79-7.2-.35.18-.7.37-1.05.56-4.07,2.2-7.72,4.82-10.94,7.87-.01-.6-.02-1.21-.02-1.83,0-.37,0-.73.01-1.09,1.88-2,3.82-3.9,5.8-5.71,1.93-1.76,3.73-3.51,5.42-5.27.47-.49.92-.97,1.37-1.46,2.07-2.24,3.77-4.66,5.09-7.26,1.32-2.59,1.98-5.56,1.98-8.91,0-1.58-.15-3.01-.43-4.3,1.77-2.25,3.77-4.16,5.98-5.74.54.43,1.03.9,1.47,1.4-2.66,3.33-3.98,7.22-3.98,11.68,0,3.82.93,7.28,2.81,10.39-1.02,1.11-2.16,2.16-3.41,3.14-2.42,1.89-5.08,3.67-7.99,5.34,4.66.36,9.11,1.63,13.33,3.83,4.23,2.2,7.75,5.3,10.56,9.31,2.82,4,4.23,8.86,4.23,14.58Z"/>
    </g>
    <text class="cls-3" transform="translate(1207.96 646.37)"><tspan x="0" y="0">Gestion Pro</tspan></text>
    <path class="cls-10" d="m1309.88,664.7h-104.43c-6.55,0-11.88-5.16-11.88-11.5v-126.66c0-6.34,5.33-11.5,11.88-11.5h104.43c6.55,0,11.88,5.16,11.88,11.5v126.66c0,6.34-5.33,11.5-11.88,11.5Zm-104.43-147.66c-5.41,0-9.82,4.26-9.82,9.5v126.66c0,5.24,4.4,9.5,9.82,9.5h104.43c5.41,0,9.82-4.26,9.82-9.5v-126.66c0-5.24-4.4-9.5-9.82-9.5h-104.43Z"/>
  </g>
</svg>