<svg width="15" height="15" viewBox="0 0 15 15" fill="none" xmlns="http://www.w3.org/2000/svg">
<g clip-path="url(#clip0_4_24)">
<path d="M13.1217 3.26183C13.0606 2.27266 12.2411 1.50128 11.25 1.50004C10.9636 1.50046 10.6812 1.56775 10.4252 1.69629C9.82484 0.647231 8.70877 0 7.5 0C6.29123 0 5.17516 0.647231 4.57476 1.69629C4.31878 1.56775 4.03643 1.50046 3.74996 1.50004C2.759 1.50128 1.93956 2.27266 1.87831 3.26183C0.963012 3.69318 0.377716 4.61301 0.374969 5.62499C0.374969 8.56163 2.01962 8.99998 3.00001 8.99998C3.14517 8.99971 3.28991 8.98749 3.43301 8.96332C4.07818 9.5 5.46905 11.1144 5.60088 13.9607C5.63604 14.5472 6.12397 15.0037 6.7116 15H8.28841C8.87604 15.0037 9.36397 14.5472 9.39912 13.9607C9.53096 11.1144 10.9218 9.5 11.567 8.96332C11.7101 8.98749 11.8548 8.99971 12 8.99998C12.9804 8.99998 14.625 8.56163 14.625 5.62499C14.6223 4.61301 14.0371 3.69318 13.1217 3.26183ZM6.75005 10.1147L4.82442 8.25868C5.12023 7.97331 5.34504 7.62244 5.48086 7.23448C5.85329 7.51944 6.28849 7.71102 6.75019 7.79328L6.75005 10.1147ZM8.24996 10.1147V7.79328C8.71166 7.71115 9.14699 7.51958 9.51942 7.23462C9.65511 7.62258 9.87991 7.97331 10.1759 8.25868L8.24996 10.1147Z" fill="#68A113"/>
</g>
<defs>
<clipPath id="clip0_4_24">
<rect width="15" height="15" fill="white"/>
</clipPath>
</defs>
</svg>
