<svg width="160" height="28" viewBox="0 0 160 28" fill="none" xmlns="http://www.w3.org/2000/svg">
<g clip-path="url(#clip0_66_727)">
<path d="M57.7636 19.4253L60.4489 1.67578H65.9057V26.6758H62.2008V8.74587L59.4833 26.6758H55.7676L52.8377 9.00065V26.6758H49.4088V1.67578H54.8759L57.7636 19.4253Z" fill="#222222"/>
<path d="M75.2688 12.2172H80.6614V15.7841H75.2688V23.1089H82.052V26.6758H71.3412V1.67578H82.052V5.25328H75.2688V12.2172Z" fill="#222222"/>
<path d="M90.5457 8.56539V26.6758H87.0104V1.67578H91.9363L95.9806 16.644V1.67578H99.4736V26.6758H95.4395L90.5457 8.56539Z" fill="#222222"/>
<path d="M108.619 1.67578V20.9645C108.619 21.8722 108.803 22.5038 109.171 22.8647C109.537 23.2204 110.034 23.3956 110.657 23.3956C111.273 23.3956 111.764 23.2204 112.133 22.8647C112.499 22.5038 112.685 21.8722 112.685 20.9645V1.67578H116.401V20.7097C116.401 22.7347 115.904 24.2873 114.914 25.3701C113.93 26.4529 112.473 26.9943 110.541 26.9943C108.614 26.9943 107.157 26.4529 106.167 25.3701C105.182 24.2873 104.691 22.7347 104.691 20.7097V1.67578H108.619Z" fill="#222222"/>
<path d="M122.154 21.145L121.655 12.1004V1.67578H125.583V12.1004L125.084 21.145H122.154ZM125.509 22.886V26.6758H121.719V22.886H125.509Z" fill="#222222"/>
<path d="M133.835 20.9221C133.835 21.8297 134.018 22.4693 134.387 22.8435C134.761 23.2124 135.258 23.3956 135.873 23.3956C136.494 23.3956 136.991 23.2124 137.359 22.8435C137.726 22.4693 137.911 21.8297 137.911 20.9221V7.42949C137.911 6.52452 137.726 5.88758 137.359 5.51867C136.991 5.15243 136.494 4.96666 135.873 4.96666C135.258 4.96666 134.761 5.15243 134.387 5.51867C134.018 5.88758 133.835 6.52452 133.835 7.42949V20.9221ZM129.907 7.67367C129.907 5.65135 130.419 4.09617 131.447 3.01336C132.471 1.93056 133.946 1.38916 135.873 1.38916C137.805 1.38916 139.281 1.93056 140.3 3.01336C141.324 4.09617 141.839 5.65135 141.839 7.67367V20.6779C141.839 22.7029 141.324 24.2554 140.3 25.3382C139.281 26.421 137.805 26.9624 135.873 26.9624C133.946 26.9624 132.471 26.421 131.447 25.3382C130.419 24.2554 129.907 22.7029 129.907 20.6779V7.67367Z" fill="#6DD41C"/>
<path d="M152.086 16.7077L150.876 19.0006V26.6758H146.948V1.67578H150.876V12.5675L156.089 1.67578H159.942L154.475 12.8223L159.942 26.6758H155.908L152.086 16.7077Z" fill="#6DD41C"/>
<path d="M19.172 0.902832C18.3572 0.902832 17.699 1.56897 17.699 2.39169C17.699 3.21175 18.3572 3.87789 19.172 3.87789C19.3498 3.87789 19.4931 4.0212 19.4931 4.20166V4.79614C19.4931 4.96069 19.371 5.09869 19.2065 5.11727C8.50849 6.3646 0.188416 15.8392 0.188416 27.3466H43.0334C43.0334 15.8392 34.7134 6.3646 24.0127 5.11727C23.8509 5.09869 23.7261 4.96069 23.7261 4.79614V4.20166C23.7261 4.0212 23.8694 3.87789 24.0472 3.87789C24.862 3.87789 25.5228 3.21175 25.5228 2.39169C25.5228 1.56897 24.862 0.902832 24.0472 0.902832H19.172ZM19.172 2.32534H24.0472C24.0817 2.32534 24.1109 2.35453 24.1109 2.39169C24.1109 2.42619 24.0817 2.45538 24.0472 2.45538C23.0918 2.45538 22.3168 3.23829 22.3168 4.20166V4.79614C22.3168 5.68256 22.975 6.4283 23.8509 6.52914C28.7022 7.09444 33.1847 9.50422 36.4703 13.3179C39.4878 16.8158 41.2739 21.2479 41.5764 25.924H1.64542C1.94797 21.2479 3.73406 16.8158 6.74895 13.3179C10.0372 9.50422 14.5197 7.09444 19.371 6.52914C20.2441 6.4283 20.905 5.68256 20.905 4.79614V4.20166C20.905 3.23829 20.1274 2.45538 19.172 2.45538C19.1375 2.45538 19.1083 2.42619 19.1083 2.39169C19.1083 2.35453 19.1375 2.32534 19.172 2.32534Z" fill="#6DD41C"/>
<path d="M23.8031 7.76855C32.0143 8.16132 38.5987 14.8094 38.9649 23.0897H34.923C34.923 15.9108 30.2521 9.83067 23.8031 7.76855Z" fill="#6DD41C"/>
</g>
<defs>
<clipPath id="clip0_66_727">
<rect width="160" height="27.0064" fill="white" transform="translate(0 0.496582)"/>
</clipPath>
</defs>
</svg>
